
        <svg xmlns="http://www.w3.org/2000/svg" xmlns:xlink="http://www.w3.org/1999/xlink" version="1.1" width="3187.5" height="983.8525234069343" viewBox="0 0 3187.5 983.8525234069343">
			
			<g transform="scale(9.375) translate(10, 10)">
				<defs id="SvgjsDefs1285"/><g id="SvgjsG1286" featureKey="PG4fjM-0" transform="matrix(1.1110987723508048,0,0,1.1110987723508048,-5.555493861754024,-13.083529879895167)" fill="#fff"><path xmlns="http://www.w3.org/2000/svg" d="M50.799,53.134V49.33c0-0.443-0.358-0.801-0.799-0.801s-0.798,0.358-0.798,0.801v4.604c0,0.438,0.356,0.797,0.798,0.797  h4.229c0.44,0,0.801-0.358,0.801-0.797c0-0.441-0.36-0.8-0.801-0.8H50.799z"/><path xmlns="http://www.w3.org/2000/svg" d="M94.277,51.521H66.531L50,36.525L33.467,51.521H5.722C5.203,51.521,5,51.725,5,52.243v34.539  c0,0.958,0.486,1.444,1.444,1.444h35.837c0.332,0,0.5-0.168,0.5-0.5V76.809c0-3.859,2.961-6.793,7.219-6.793  s7.219,2.933,7.219,6.793v10.916c0,0.332,0.168,0.5,0.5,0.5h35.838c0.957,0,1.443-0.485,1.443-1.443V52.243  C95,51.725,94.797,51.521,94.277,51.521z M20.811,79.766c0,0.387-0.196,0.586-0.583,0.586h-7.589c-0.389,0-0.587-0.199-0.587-0.586  v-7.652c0-0.387,0.198-0.586,0.587-0.586h7.589c0.388,0,0.583,0.199,0.583,0.586V79.766z M20.811,65.602  c0,0.39-0.196,0.586-0.583,0.586h-7.589c-0.389,0-0.587-0.196-0.587-0.586v-7.649c0-0.39,0.198-0.586,0.587-0.586h7.589  c0.388,0,0.583,0.196,0.583,0.586V65.602z M35.335,79.766c0,0.387-0.196,0.586-0.585,0.586h-7.589c-0.388,0-0.585-0.199-0.585-0.586  v-7.652c0-0.387,0.198-0.586,0.585-0.586h7.589c0.389,0,0.585,0.199,0.585,0.586V79.766z M35.335,65.602  c0,0.39-0.196,0.586-0.585,0.586h-7.589c-0.388,0-0.585-0.196-0.585-0.586v-7.649c0-0.39,0.198-0.586,0.585-0.586h7.589  c0.389,0,0.585,0.196,0.585,0.586V65.602z M49.999,60.318c-3.527,0-6.385-2.86-6.385-6.385c0-3.527,2.858-6.388,6.385-6.388  c3.53,0,6.39,2.859,6.39,6.388C56.389,57.458,53.529,60.318,49.999,60.318z M73.424,79.766c0,0.387-0.197,0.586-0.585,0.586H65.25  c-0.389,0-0.585-0.199-0.585-0.586v-7.652c0-0.387,0.196-0.586,0.585-0.586h7.589c0.388,0,0.585,0.199,0.585,0.586V79.766z   M73.424,65.602c0,0.39-0.197,0.586-0.585,0.586H65.25c-0.389,0-0.585-0.196-0.585-0.586v-7.649c0-0.39,0.196-0.586,0.585-0.586  h7.589c0.388,0,0.585,0.196,0.585,0.586V65.602z M87.949,79.766c0,0.387-0.198,0.586-0.588,0.586h-7.588  c-0.389,0-0.584-0.199-0.584-0.586v-7.652c0-0.387,0.197-0.586,0.584-0.586h7.588c0.39,0,0.588,0.199,0.588,0.586V79.766z   M87.949,65.602c0,0.39-0.198,0.586-0.588,0.586h-7.588c-0.389,0-0.584-0.196-0.584-0.586v-7.649c0-0.39,0.197-0.586,0.584-0.586  h7.588c0.39,0,0.588,0.196,0.588,0.586V65.602z"/><path xmlns="http://www.w3.org/2000/svg" d="M52.915,23.449c4.739-2.873,8.56,1.393,13.463-1.316c0.151-0.085,0.272-0.229,0.272-0.472v-9.594  c0-0.26-0.18-0.363-0.412-0.24c-4.883,2.578-8.7-1.687-13.459,1.323c-0.146,0.094-0.262,0.247-0.262,0.49v9.594  C52.518,23.494,52.691,23.584,52.915,23.449z"/><path xmlns="http://www.w3.org/2000/svg" d="M94.466,44.252l-9.11-8.263c-0.766-0.696-1.475-0.97-2.513-0.97H60.318L51.1,26.657V13.021c0-0.604-0.492-1.098-1.1-1.098  c-0.607,0-1.1,0.494-1.1,1.098v13.637l-9.217,8.361l-22.526-0.003c-1.038,0-1.747,0.273-2.513,0.97l-9.111,8.261  C5.151,44.594,5,44.934,5,45.453v1.588c0,0.519,0.203,0.722,0.722,0.722l26.353,0.006L50,31.509l17.924,16.259h26.354  c0.52,0,0.723-0.203,0.723-0.722v-1.587C95,44.94,94.85,44.6,94.466,44.252z"/></g><g id="SvgjsG1287" featureKey="jxYttZ-0" transform="matrix(0.6560818869001562,0,0,0.6560818869001562,118.95026873068437,32.96890175760389)" fill="#fff"><path d="M14.64 12.5 c0 4.14 -3.22 7.48 -7.2 7.5 l-5.84 0 l0 -15 l5.84 0 c3.98 0.02 7.2 3.38 7.2 7.5 z M7.4 18.16 c1.32 0 2.58 -0.56 3.52 -1.62 c0.96 -1.08 1.5 -2.5 1.5 -4.04 c0 -1.52 -0.54 -2.96 -1.5 -4.02 c-0.94 -1.06 -2.2 -1.64 -3.52 -1.64 l-3.58 0 l0 11.32 l3.58 0 z M26.36 15.08 l0 0.74 l-7.78 0 c0 1.82 1.74 2.7 3.02 2.7 c0.94 0 1.98 -0.5 2.54 -1.3 l1.42 1.28 c-0.66 0.9 -1.74 1.7 -3.96 1.7 c-3.2 0 -5.16 -2.18 -5.16 -5.12 s1.9 -5.14 4.96 -5.14 s4.46 1.7 4.88 4.18 c0.06 0.32 0.08 0.64 0.08 0.96 z M18.62 14.120000000000001 l5.58 0 c0 -1.6 -1.28 -2.48 -2.8 -2.48 s-2.78 1.02 -2.78 2.48 z M37.7 14.3 l0 5.7 l-2.06 0 l0 -5.5 c0 -2 -0.62 -2.88 -2.32 -2.88 c-1.92 0 -2.7 1.34 -2.7 3.08 l0 5.3 l-2.06 0 l0 -15 l2.06 0 l0 6.72 c0.28 -0.88 1.52 -1.68 2.7 -1.76 c2.68 -0.2 4.38 1.1 4.38 4.34 z M42.660000000000004 10.12 l0 9.88 l-2.06 0 l0 -9.88 l2.06 0 z M42.760000000000005 6.5 c0 0.64 -0.5 1.14 -1.14 1.14 c-0.62 0 -1.12 -0.5 -1.12 -1.14 c0 -0.62 0.5 -1.12 1.12 -1.12 c0.64 0 1.14 0.5 1.14 1.12 z M49.78 9.92 c2.84 0 3.98 1.72 3.98 3.18 l0 6.9 l-2.06 0 l0 -1.08 c-0.72 0.98 -2 1.26 -2.8 1.26 c-2.26 0 -3.74 -1.32 -3.74 -3.08 c0 -2.46 1.84 -3.34 3.74 -3.34 l2.8 0 l0 -0.66 c0 -0.62 -0.24 -1.48 -1.92 -1.48 c-0.94 0 -1.8 0.5 -2.36 1.28 l-1.42 -1.28 c0.94 -1.04 2.28 -1.7 3.78 -1.7 z M51.7 16.92 l0 -1.48 l-2.52 0 c-1.22 0 -2.08 0.62 -1.94 1.74 c0.12 0.94 0.88 1.32 1.94 1.32 c1.9 0 2.52 -0.9 2.52 -1.58 z M60.04 18.36 c0.64 0.26 1.14 0.08 1.44 -0.06 l0 1.6 c-0.26 0.16 -0.64 0.3 -1.18 0.3 c-1.18 0 -2.22 -0.38 -2.86 -1.42 c-0.6 -1 -0.6 -1.54 -0.6 -3.1 l0 -3.88 l-1.2 0 l0 -1.68 l1.2 0 l0 -3.12 l2.06 0 l0 3.12 l2.58 0 l0 1.68 l-2.58 0 l0 3.88 c0 1.64 0.16 2.24 1.14 2.68 z M67.68 18.36 c0.64 0.26 1.14 0.08 1.44 -0.06 l0 1.6 c-0.26 0.16 -0.64 0.3 -1.18 0.3 c-1.18 0 -2.22 -0.38 -2.86 -1.42 c-0.6 -1 -0.6 -1.54 -0.6 -3.1 l0 -3.88 l-1.2 0 l0 -1.68 l1.2 0 l0 -3.12 l2.06 0 l0 3.12 l2.58 0 l0 1.68 l-2.58 0 l0 3.88 c0 1.64 0.16 2.24 1.14 2.68 z M75.74 9.92 c2.84 0 3.98 1.72 3.98 3.18 l0 6.9 l-2.06 0 l0 -1.08 c-0.72 0.98 -2 1.26 -2.8 1.26 c-2.26 0 -3.74 -1.32 -3.74 -3.08 c0 -2.46 1.84 -3.34 3.74 -3.34 l2.8 0 l0 -0.66 c0 -0.62 -0.24 -1.48 -1.92 -1.48 c-0.94 0 -1.8 0.5 -2.36 1.28 l-1.42 -1.28 c0.94 -1.04 2.28 -1.7 3.78 -1.7 z M77.66 16.92 l0 -1.48 l-2.52 0 c-1.22 0 -2.08 0.62 -1.94 1.74 c0.12 0.94 0.88 1.32 1.94 1.32 c1.9 0 2.52 -0.9 2.52 -1.58 z M89.3 20 l-3.74 -4.78 l-1.08 0.92 l0 3.86 l-2.08 0 l0 -15 l2.08 0 l0 8.58 l3.98 -3.46 l3.2 0 l-4.6 3.84 l4.9 6.04 l-2.66 0 z M97.58 9.92 c2.84 0 3.98 1.72 3.98 3.18 l0 6.9 l-2.06 0 l0 -1.08 c-0.72 0.98 -2 1.26 -2.8 1.26 c-2.26 0 -3.74 -1.32 -3.74 -3.08 c0 -2.46 1.84 -3.34 3.74 -3.34 l2.8 0 l0 -0.66 c0 -0.62 -0.24 -1.48 -1.92 -1.48 c-0.94 0 -1.8 0.5 -2.36 1.28 l-1.42 -1.28 c0.94 -1.04 2.28 -1.7 3.78 -1.7 z M99.5 16.92 l0 -1.48 l-2.52 0 c-1.22 0 -2.08 0.62 -1.94 1.74 c0.12 0.94 0.88 1.32 1.94 1.32 c1.9 0 2.52 -0.9 2.52 -1.58 z M113.18 14.3 l0 5.7 l-2.06 0 l0 -5.5 c0 -2 -0.62 -2.88 -2.32 -2.88 c-1.92 0 -2.7 1.34 -2.7 3.08 l0 5.3 l-2.06 0 l0 -9.88 l2.06 0 l0 1.6 c0.28 -0.88 1.52 -1.68 2.7 -1.76 c2.68 -0.2 4.38 1.1 4.38 4.34 z M115.52 15.08 c0 -2.94 2.1 -5.14 4.94 -5.14 c0.98 0 2.18 0.42 2.84 0.96 l0 -5.9 l2.08 0 l0 15 l-2.08 0 l0 -0.74 c-0.78 0.58 -1.86 0.94 -2.84 0.94 c-2.84 0 -4.94 -2.18 -4.94 -5.12 z M117.6 15.08 c0 2 1.38 3.44 3.06 3.44 c1.12 0 2.12 -0.52 2.64 -1.58 c0.28 -0.54 0.44 -1.18 0.44 -1.86 s-0.16 -1.32 -0.44 -1.88 c-0.52 -1.06 -1.52 -1.56 -2.64 -1.56 c-1.68 0 -3.06 1.42 -3.06 3.44 z M130.54 10.12 l0 9.88 l-2.06 0 l0 -9.88 l2.06 0 z M130.64000000000001 6.5 c0 0.64 -0.5 1.14 -1.14 1.14 c-0.62 0 -1.12 -0.5 -1.12 -1.14 c0 -0.62 0.5 -1.12 1.12 -1.12 c0.64 0 1.14 0.5 1.14 1.12 z M142.02 10.12 c0 0 -2.5 5.92 -4.16 9.88 c-1.4 3.32 -2.5 5.32 -4.36 5.32 c-0.58 0 -1.32 -0.28 -1.86 -0.6 l0.62 -1.8 c0.16 0.14 0.52 0.34 0.76 0.4 c1.54 0.44 2.5 -2.78 3.16 -4.36 l-3.74 -8.84 l2.08 0 l2.72 6.48 l2.7 -6.48 l2.08 0 z M147.84 9.92 c2.84 0 3.98 1.72 3.98 3.18 l0 6.9 l-2.06 0 l0 -1.08 c-0.72 0.98 -2 1.26 -2.8 1.26 c-2.26 0 -3.74 -1.32 -3.74 -3.08 c0 -2.46 1.84 -3.34 3.74 -3.34 l2.8 0 l0 -0.66 c0 -0.62 -0.24 -1.48 -1.92 -1.48 c-0.94 0 -1.8 0.5 -2.36 1.28 l-1.42 -1.28 c0.94 -1.04 2.28 -1.7 3.78 -1.7 z M149.76000000000002 16.92 l0 -1.48 l-2.52 0 c-1.22 0 -2.08 0.62 -1.94 1.74 c0.12 0.94 0.88 1.32 1.94 1.32 c1.9 0 2.52 -0.9 2.52 -1.58 z M171.8 16.46 l1.46 1.46 c-1.38 1.52 -3.36 2.28 -5.54 2.28 c-4.22 0 -7.62 -3.34 -7.62 -7.7 c0 -4.34 3.4 -7.68 7.62 -7.68 c2.18 0 4.16 0.76 5.56 2.3 l-1.46 1.46 c-0.88 -1.28 -2.48 -1.92 -4.1 -1.92 c-3.1 0 -5.4 2.76 -5.4 5.84 c0 2.82 2.08 5.86 5.4 5.86 c1.44 0 3.28 -0.56 4.08 -1.9 z M185.00000000000003 15.08 l0 0.74 l-7.78 0 c0 1.82 1.74 2.7 3.02 2.7 c0.94 0 1.98 -0.5 2.54 -1.3 l1.42 1.28 c-0.66 0.9 -1.74 1.7 -3.96 1.7 c-3.2 0 -5.16 -2.18 -5.16 -5.12 s1.9 -5.14 4.96 -5.14 s4.46 1.7 4.88 4.18 c0.06 0.32 0.08 0.64 0.08 0.96 z M177.26000000000002 14.120000000000001 l5.58 0 c0 -1.6 -1.28 -2.48 -2.8 -2.48 s-2.78 1.02 -2.78 2.48 z M196.14000000000001 14.3 l0 5.7 l-2.06 0 l0 -5.5 c0 -2 -0.62 -2.88 -2.32 -2.88 c-1.92 0 -2.7 1.34 -2.7 3.08 l0 5.3 l-2.06 0 l0 -9.88 l2.06 0 l0 1.6 c0.28 -0.88 1.52 -1.68 2.7 -1.76 c2.68 -0.2 4.38 1.1 4.38 4.34 z M202.68 18.36 c0.64 0.26 1.14 0.08 1.44 -0.06 l0 1.6 c-0.26 0.16 -0.64 0.3 -1.18 0.3 c-1.18 0 -2.22 -0.38 -2.86 -1.42 c-0.6 -1 -0.6 -1.54 -0.6 -3.1 l0 -3.88 l-1.2 0 l0 -1.68 l1.2 0 l0 -3.12 l2.06 0 l0 3.12 l2.58 0 l0 1.68 l-2.58 0 l0 3.88 c0 1.64 0.16 2.24 1.14 2.68 z M212.45999999999998 10.24 l-0.44 1.62 c-0.14 -0.08 -0.58 -0.22 -0.94 -0.22 c-1.7 0 -2.5 1.62 -2.5 3.62 l0 4.74 l-2.06 0 l0 -9.88 l2.06 0 l0 1.4 c0.24 -0.92 1.3 -1.58 2.48 -1.58 c0.54 0 1.12 0.14 1.4 0.3 z M217.87999999999997 9.92 c2.84 0 3.98 1.72 3.98 3.18 l0 6.9 l-2.06 0 l0 -1.08 c-0.72 0.98 -2 1.26 -2.8 1.26 c-2.26 0 -3.74 -1.32 -3.74 -3.08 c0 -2.46 1.84 -3.34 3.74 -3.34 l2.8 0 l0 -0.66 c0 -0.62 -0.24 -1.48 -1.92 -1.48 c-0.94 0 -1.8 0.5 -2.36 1.28 l-1.42 -1.28 c0.94 -1.04 2.28 -1.7 3.78 -1.7 z M219.79999999999998 16.92 l0 -1.48 l-2.52 0 c-1.22 0 -2.08 0.62 -1.94 1.74 c0.12 0.94 0.88 1.32 1.94 1.32 c1.9 0 2.52 -0.9 2.52 -1.58 z M226.61999999999998 4.619999999999999 l0 15.38 l-2.08 0 l0 -15.38 l2.08 0 z M247.11999999999998 16.46 l1.46 1.46 c-1.38 1.52 -3.36 2.28 -5.54 2.28 c-4.22 0 -7.62 -3.34 -7.62 -7.7 c0 -4.34 3.4 -7.68 7.62 -7.68 c2.18 0 4.16 0.76 5.56 2.3 l-1.46 1.46 c-0.88 -1.28 -2.48 -1.92 -4.1 -1.92 c-3.1 0 -5.4 2.76 -5.4 5.84 c0 2.82 2.08 5.86 5.4 5.86 c1.44 0 3.28 -0.56 4.08 -1.9 z M255.73999999999998 11.64 c-1.7 0 -3.08 1.42 -3.08 3.44 c0 2 1.38 3.44 3.08 3.44 s3.08 -1.44 3.08 -3.44 c0 -2.02 -1.38 -3.44 -3.08 -3.44 z M255.73999999999998 9.94 c2.84 0 5.14 2.2 5.14 5.14 s-2.3 5.12 -5.14 5.12 s-5.14 -2.18 -5.14 -5.12 s2.3 -5.14 5.14 -5.14 z M265.36 4.619999999999999 l0 15.38 l-2.08 0 l0 -15.38 l2.08 0 z M270.64 4.619999999999999 l0 15.38 l-2.08 0 l0 -15.38 l2.08 0 z M282.9599999999999 15.08 l0 0.74 l-7.78 0 c0 1.82 1.74 2.7 3.02 2.7 c0.94 0 1.98 -0.5 2.54 -1.3 l1.42 1.28 c-0.66 0.9 -1.74 1.7 -3.96 1.7 c-3.2 0 -5.16 -2.18 -5.16 -5.12 s1.9 -5.14 4.96 -5.14 s4.46 1.7 4.88 4.18 c0.06 0.32 0.08 0.64 0.08 0.96 z M275.2199999999999 14.120000000000001 l5.58 0 c0 -1.6 -1.28 -2.48 -2.8 -2.48 s-2.78 1.02 -2.78 2.48 z M292.25999999999993 10.12 l2.06 0 l0 10.04 c0 2.94 -2.3 5.32 -5.14 5.32 c-1.48 0 -2.82 -0.66 -3.76 -1.7 l1.42 -1.28 c0.56 0.8 1.4 1.3 2.34 1.3 c1.7 0 3.08 -1.64 3.08 -3.64 l0 -0.92 c-0.66 0.54 -1.88 0.94 -2.84 0.94 c-2.84 0 -4.94 -2.18 -4.94 -5.12 s2.1 -5.14 4.94 -5.14 c0.96 0 2.06 0.36 2.84 0.96 l0 -0.76 z M289.61999999999995 18.5 c1.12 0 2.1 -0.52 2.64 -1.58 c0.28 -0.54 0.44 -1.18 0.44 -1.86 s-0.16 -1.32 -0.44 -1.88 c-0.54 -1.06 -1.52 -1.56 -2.64 -1.56 c-1.7 0 -3.08 1.42 -3.08 3.44 c0 2 1.38 3.44 3.08 3.44 z M306.43999999999994 15.08 l0 0.74 l-7.78 0 c0 1.82 1.74 2.7 3.02 2.7 c0.94 0 1.98 -0.5 2.54 -1.3 l1.42 1.28 c-0.66 0.9 -1.74 1.7 -3.96 1.7 c-3.2 0 -5.16 -2.18 -5.16 -5.12 s1.9 -5.14 4.96 -5.14 s4.46 1.7 4.88 4.18 c0.06 0.32 0.08 0.64 0.08 0.96 z M298.69999999999993 14.120000000000001 l5.58 0 c0 -1.6 -1.28 -2.48 -2.8 -2.48 s-2.78 1.02 -2.78 2.48 z"/></g>
			</g>
		</svg>
	